<svg width="24" height="24" viewBox="0 0 24 24" fill="none" xmlns="http://www.w3.org/2000/svg">
<g clip-path="url(#clip0_494_3673)">
<path d="M9.25622 6.22852C7.46575 7.06661 6.15147 8.70471 5.73242 10.6857C5.90385 10.6857 8.57051 10.7238 11.6372 9.90471C10.5324 7.9428 9.35146 6.3428 9.25622 6.22852Z" fill="#61B766"/>
<path d="M12.171 10.895C8.8758 11.8855 5.7139 11.8093 5.59961 11.8093C5.59961 11.8664 5.59961 11.9426 5.59961 12.0188C5.59961 13.6569 6.22818 15.1617 7.2377 16.2855C7.2377 16.2855 8.99009 13.1617 12.4377 12.0569C12.5139 12.0379 12.6091 11.9998 12.6853 11.9807C12.5329 11.6188 12.3425 11.2569 12.171 10.895Z" fill="#61B766"/>
<path d="M12.0009 5.6001C11.4866 5.6001 10.9723 5.65724 10.4961 5.77153C10.5913 5.90486 11.7913 7.48582 12.8961 9.50487C15.2961 8.60963 16.2104 7.21915 16.2294 7.2001C15.1056 6.20962 13.6199 5.6001 12.0009 5.6001Z" fill="#61B766"/>
<path d="M14.3242 12.7427C15.1623 15.0474 15.5052 16.9141 15.5623 17.3141C16.9909 16.3426 18.0195 14.7998 18.3052 13.0284C18.1909 12.9712 16.4004 12.3998 14.3242 12.7427Z" fill="#61B766"/>
<path d="M17.981 0H6C2.70476 0 0 2.70476 0 6.01905V18C0 21.2952 2.70476 24 6 24H17.981C21.2952 24 24 21.2952 24 17.981V6.01905C24 2.70476 21.2952 0 17.981 0ZM19.3333 13.5048C19.2381 13.981 19.0857 14.4571 18.8952 14.9143C18.7048 15.3524 18.4762 15.7905 18.2095 16.1905C17.9429 16.5905 17.6381 16.9524 17.2952 17.2952C16.9524 17.6381 16.5905 17.9429 16.1905 18.2095C15.7905 18.4762 15.3714 18.7048 14.9143 18.8952C14.4571 19.0857 13.981 19.2381 13.5048 19.3333C13.0095 19.4286 12.5143 19.4857 12 19.4857C11.4857 19.4857 10.9905 19.4286 10.4952 19.3333C10.019 19.2381 9.54286 19.0857 9.08571 18.8952C8.64762 18.7048 8.20952 18.4762 7.80952 18.2095C7.40952 17.9429 7.04762 17.6381 6.70476 17.2952C6.36191 16.9524 6.05714 16.5905 5.79048 16.1905C5.52381 15.7905 5.29524 15.3714 5.10476 14.9143C4.91429 14.4571 4.7619 13.981 4.66667 13.5048C4.57143 13.0095 4.51429 12.4952 4.51429 12C4.51429 11.4857 4.57143 10.9905 4.66667 10.4952C4.7619 10.019 4.91429 9.54286 5.10476 9.08571C5.29524 8.64762 5.52381 8.20952 5.79048 7.80952C6.05714 7.40952 6.36191 7.04762 6.70476 6.70476C7.04762 6.36191 7.40952 6.05714 7.80952 5.79048C8.20952 5.52381 8.62857 5.29524 9.08571 5.10476C9.54286 4.91429 10.019 4.7619 10.4952 4.66667C10.9905 4.57143 11.5048 4.51429 12 4.51429C12.5143 4.51429 13.0095 4.57143 13.5048 4.66667C13.981 4.7619 14.4571 4.91429 14.9143 5.10476C15.3524 5.29524 15.7905 5.52381 16.1905 5.79048C16.5905 6.05714 16.9524 6.36191 17.2952 6.70476C17.6381 7.04762 17.9429 7.40952 18.2095 7.80952C18.4762 8.20952 18.7048 8.62857 18.8952 9.08571C19.0857 9.54286 19.2381 10.019 19.3333 10.4952C19.4286 10.9905 19.4857 11.4857 19.4857 12C19.4857 12.5143 19.4286 13.0095 19.3333 13.5048Z" fill="#61B766"/>
<path d="M13.1238 13.0283C13.1238 13.0283 13.1047 13.0474 13.0857 13.0474C9.31427 14.3617 8.07617 17.0093 8.07617 17.0474C9.16189 17.8855 10.5143 18.3997 12 18.3997C12.8762 18.3997 13.7333 18.2093 14.4952 17.8855C14.4 17.3331 14.0381 15.3712 13.1238 13.0283Z" fill="#61B766"/>
<path d="M16.933 7.94287C16.933 7.96192 15.9044 9.44763 13.3711 10.4762C13.5235 10.781 13.6568 11.0857 13.7901 11.4095C13.8282 11.5238 13.8854 11.6381 13.9235 11.7333C16.114 11.4476 18.2854 11.9238 18.3806 11.9429C18.3616 10.4191 17.8282 9.02859 16.933 7.94287Z" fill="#61B766"/>
</g>
<defs>
<clipPath id="clip0_494_3673">
<rect width="24" height="24" fill="white"/>
</clipPath>
</defs>
</svg>
